<svg width="1299" height="497" viewBox="0 0 1299 497" fill="none" xmlns="http://www.w3.org/2000/svg">
<mask id="path-1-inside-1_1_87" fill="white">
<path d="M232 322.268H1068V407H232V322.268Z"/>
</mask>
<path d="M1068 407V409H1070V407H1068ZM232 407H230V409H232V407ZM1068 322.268H1066V407H1068H1070V322.268H1068ZM1068 407V405H232V407V409H1068V407ZM232 407H234V322.268H232H230V407H232Z" fill="#9CAEB2" mask="url(#path-1-inside-1_1_87)"/>
<mask id="path-3-inside-2_1_87" fill="white">
<path d="M946 91H1068V322H946V91Z"/>
</mask>
<path d="M946 91V89H944V91H946ZM1068 91H1070V89H1068V91ZM946 91V93H1068V91V89H946V91ZM1068 91H1066V322H1068H1070V91H1068ZM946 322H948V91H946H944V322H946Z" fill="#9CAEB2" mask="url(#path-3-inside-2_1_87)"/>
<mask id="path-5-inside-3_1_87" fill="white">
<path d="M232 176H443V322H232V176Z"/>
</mask>
<path d="M232 176V174H230V176H232ZM443 176H445V174H443V176ZM443 322V324H445V322H443ZM232 322H230V324H232V322ZM232 176V178H443V176V174H232V176ZM443 176H441V322H443H445V176H443ZM443 322V320H232V322V324H443V322ZM232 322H234V176H232H230V322H232Z" fill="#9CAEB2" mask="url(#path-5-inside-3_1_87)"/>
<mask id="path-7-inside-4_1_87" fill="white">
<path d="M695 197H821V322H695V197Z"/>
</mask>
<path d="M695 197V195H693V197H695ZM695 322H693V324H695V322ZM695 197V199H821V197V195H695V197ZM821 322V320H695V322V324H821V322ZM695 322H697V197H695H693V322H695Z" fill="#9CAEB2" mask="url(#path-7-inside-4_1_87)"/>
<mask id="path-9-inside-5_1_87" fill="white">
<path d="M569 197H695V322H569V197Z"/>
</mask>
<path d="M569 197V195H567V197H569ZM569 322H567V324H569V322ZM569 197V199H695V197V195H569V197ZM695 322V320H569V322V324H695V322ZM569 322H571V197H569H567V322H569Z" fill="#9CAEB2" mask="url(#path-9-inside-5_1_87)"/>
<mask id="path-11-inside-6_1_87" fill="white">
<path d="M443 197H569V322H443V197Z"/>
</mask>
<path d="M443 197V199H569V197V195H443V197ZM569 322V320H443V322V324H569V322Z" fill="#9CAEB2" mask="url(#path-11-inside-6_1_87)"/>
<mask id="path-13-inside-7_1_87" fill="white">
<path d="M821 197H947V322H821V197Z"/>
</mask>
<path d="M821 197V195H819V197H821ZM821 322H819V324H821V322ZM821 197V199H947V197V195H821V197ZM947 322V320H821V322V324H947V322ZM821 322H823V197H821H819V322H821Z" fill="#9CAEB2" mask="url(#path-13-inside-7_1_87)"/>
<path d="M848.06 105.909H849.952L854.401 116.776H854.554L859.003 105.909H860.895V119H859.412V109.054H859.284L855.193 119H853.762L849.671 109.054H849.543V119H848.06V105.909ZM864.074 119V105.909H871.974V107.315H865.659V111.739H871.565V113.145H865.659V117.594H872.076V119H864.074ZM885.212 105.909V119H883.678L876.544 108.722H876.417V119H874.831V105.909H876.365L883.525 116.213H883.652V105.909H885.212ZM895.824 119L892.245 105.909H893.856L896.591 116.571H896.719L899.506 105.909H901.296L904.083 116.571H904.211L906.947 105.909H908.557L904.978 119H903.341L900.452 108.568H900.35L897.461 119H895.824ZM920.451 110H918.866C918.772 109.544 918.608 109.143 918.374 108.798C918.144 108.453 917.863 108.163 917.53 107.929C917.202 107.69 916.838 107.511 916.437 107.392C916.037 107.273 915.619 107.213 915.184 107.213C914.392 107.213 913.674 107.413 913.03 107.814C912.391 108.214 911.882 108.805 911.503 109.585C911.128 110.364 910.94 111.321 910.94 112.455C910.94 113.588 911.128 114.545 911.503 115.325C911.882 116.104 912.391 116.695 913.03 117.095C913.674 117.496 914.392 117.696 915.184 117.696C915.619 117.696 916.037 117.636 916.437 117.517C916.838 117.398 917.202 117.221 917.53 116.987C917.863 116.748 918.144 116.456 918.374 116.111C918.608 115.761 918.772 115.361 918.866 114.909H920.451C920.332 115.578 920.115 116.177 919.799 116.705C919.484 117.234 919.092 117.683 918.623 118.054C918.155 118.42 917.628 118.7 917.044 118.891C916.465 119.083 915.845 119.179 915.184 119.179C914.068 119.179 913.075 118.906 912.206 118.361C911.336 117.815 910.652 117.04 910.154 116.034C909.655 115.028 909.406 113.835 909.406 112.455C909.406 111.074 909.655 109.881 910.154 108.875C910.652 107.869 911.336 107.094 912.206 106.548C913.075 106.003 914.068 105.73 915.184 105.73C915.845 105.73 916.465 105.826 917.044 106.018C917.628 106.21 918.155 106.491 918.623 106.862C919.092 107.228 919.484 107.675 919.799 108.204C920.115 108.728 920.332 109.327 920.451 110Z" fill="#9CAEB2"/>
<mask id="path-16-inside-8_1_87" fill="white">
<path d="M821 91H947V143H821V91Z"/>
</mask>
<path d="M821 91V89H819V91H821ZM821 143H819V145H821V143ZM821 91V93H947V91V89H821V91ZM947 143V141H821V143V145H947V143ZM821 143H823V91H821H819V143H821Z" fill="#9CAEB2" mask="url(#path-16-inside-8_1_87)"/>
<path d="M852.198 169.1L848.618 156.009H850.229L852.965 166.671H853.093L855.88 156.009H857.67L860.457 166.671H860.584L863.32 156.009H864.931L861.351 169.1H859.715L856.826 158.668H856.724L853.834 169.1H852.198ZM877.336 162.555C877.336 163.935 877.087 165.128 876.588 166.134C876.09 167.14 875.406 167.915 874.537 168.461C873.667 169.006 872.674 169.279 871.558 169.279C870.441 169.279 869.449 169.006 868.579 168.461C867.71 167.915 867.026 167.14 866.527 166.134C866.029 165.128 865.779 163.935 865.779 162.555C865.779 161.174 866.029 159.981 866.527 158.975C867.026 157.969 867.71 157.194 868.579 156.648C869.449 156.103 870.441 155.83 871.558 155.83C872.674 155.83 873.667 156.103 874.537 156.648C875.406 157.194 876.09 157.969 876.588 158.975C877.087 159.981 877.336 161.174 877.336 162.555ZM875.802 162.555C875.802 161.421 875.613 160.464 875.233 159.685C874.858 158.905 874.349 158.314 873.706 157.914C873.066 157.513 872.351 157.313 871.558 157.313C870.765 157.313 870.047 157.513 869.404 157.914C868.765 158.314 868.255 158.905 867.876 159.685C867.501 160.464 867.314 161.421 867.314 162.555C867.314 163.688 867.501 164.645 867.876 165.425C868.255 166.204 868.765 166.795 869.404 167.195C870.047 167.596 870.765 167.796 871.558 167.796C872.351 167.796 873.066 167.596 873.706 167.195C874.349 166.795 874.858 166.204 875.233 165.425C875.613 164.645 875.802 163.688 875.802 162.555ZM880.002 156.009H881.894L886.343 166.876H886.496L890.945 156.009H892.837V169.1H891.354V159.154H891.226L887.135 169.1H885.703L881.613 159.154H881.485V169.1H880.002V156.009ZM896.015 169.1V156.009H903.916V157.415H897.601V161.839H903.507V163.245H897.601V167.694H904.018V169.1H896.015ZM917.154 156.009V169.1H915.62L908.486 158.822H908.358V169.1H906.773V156.009H908.307L915.466 166.313H915.594V156.009H917.154ZM872.668 191.1L869.088 178.009H870.699L873.435 188.671H873.563L876.35 178.009H878.139L880.926 188.671H881.054L883.79 178.009H885.401L881.821 191.1H880.185L877.296 180.668H877.193L874.304 191.1H872.668ZM897.295 182.1H895.709C895.616 181.644 895.452 181.243 895.217 180.898C894.987 180.553 894.706 180.263 894.373 180.029C894.045 179.79 893.681 179.611 893.28 179.492C892.88 179.373 892.462 179.313 892.028 179.313C891.235 179.313 890.517 179.513 889.873 179.914C889.234 180.314 888.725 180.905 888.346 181.685C887.971 182.464 887.783 183.421 887.783 184.555C887.783 185.688 887.971 186.645 888.346 187.425C888.725 188.204 889.234 188.795 889.873 189.195C890.517 189.596 891.235 189.796 892.028 189.796C892.462 189.796 892.88 189.736 893.28 189.617C893.681 189.498 894.045 189.321 894.373 189.087C894.706 188.848 894.987 188.556 895.217 188.211C895.452 187.861 895.616 187.461 895.709 187.009H897.295C897.175 187.678 896.958 188.277 896.643 188.805C896.327 189.334 895.935 189.783 895.467 190.154C894.998 190.52 894.472 190.8 893.888 190.991C893.308 191.183 892.688 191.279 892.028 191.279C890.911 191.279 889.918 191.006 889.049 190.461C888.18 189.915 887.496 189.14 886.997 188.134C886.498 187.128 886.249 185.935 886.249 184.555C886.249 183.174 886.498 181.981 886.997 180.975C887.496 179.969 888.18 179.194 889.049 178.648C889.918 178.103 890.911 177.83 892.028 177.83C892.688 177.83 893.308 177.926 893.888 178.118C894.472 178.31 894.998 178.591 895.467 178.962C895.935 179.328 896.327 179.775 896.643 180.304C896.958 180.828 897.175 181.427 897.295 182.1Z" fill="#9CAEB2"/>
<mask id="path-19-inside-9_1_87" fill="white">
<path d="M821 143H947V197H821V143Z"/>
</mask>
<path d="M821 197H823V143H821H819V197H821Z" fill="#9CAEB2" mask="url(#path-19-inside-9_1_87)"/>
</svg>
