<svg width="1299" height="497" viewBox="0 0 1299 497" fill="none" xmlns="http://www.w3.org/2000/svg">
<rect x="243" y="225" width="22" height="41" fill="#9CAEB2"/>
<rect x="273" y="189" width="41" height="22" fill="#9CAEB2"/>
<rect x="336" y="189" width="41" height="22" fill="#9CAEB2"/>
<rect x="273" y="271" width="41" height="22" fill="#9CAEB2"/>
<rect x="336" y="271" width="41" height="22" fill="#9CAEB2"/>
<rect x="708" y="214" width="44" height="8" fill="#9CAEB2"/>
<rect x="708" y="229" width="44" height="8" fill="#9CAEB2"/>
<rect x="708" y="244" width="44" height="8" fill="#9CAEB2"/>
<rect x="708" y="259" width="44" height="8" fill="#9CAEB2"/>
<rect x="708" y="274" width="44" height="8" fill="#9CAEB2"/>
<rect x="708" y="289" width="44" height="8" fill="#9CAEB2"/>
<rect x="768" y="214" width="44" height="8" fill="#9CAEB2"/>
<rect x="768" y="229" width="44" height="8" fill="#9CAEB2"/>
<rect x="768" y="244" width="44" height="8" fill="#9CAEB2"/>
<rect x="768" y="259" width="44" height="8" fill="#9CAEB2"/>
<rect x="768" y="274" width="44" height="8" fill="#9CAEB2"/>
<rect x="768" y="289" width="44" height="8" fill="#9CAEB2"/>
<rect x="578" y="214" width="7.3" height="8" fill="#9CAEB2"/>
<rect x="578" y="225" width="7.3" height="8" fill="#9CAEB2"/>
<rect x="578" y="236" width="7.3" height="8" fill="#9CAEB2"/>
<rect x="578" y="247" width="7.3" height="8" fill="#9CAEB2"/>
<rect x="578" y="258" width="7.3" height="8" fill="#9CAEB2"/>
<rect x="578" y="269" width="7.3" height="8" fill="#9CAEB2"/>
<rect x="578" y="280" width="7.3" height="8" fill="#9CAEB2"/>
<rect x="578" y="291" width="7.3" height="8" fill="#9CAEB2"/>
<rect x="578" y="302" width="7.3" height="8" fill="#9CAEB2"/>
<rect x="589" y="214" width="7.3" height="8" fill="#9CAEB2"/>
<rect x="589" y="225" width="7.3" height="8" fill="#9CAEB2"/>
<rect x="589" y="236" width="7.3" height="8" fill="#9CAEB2"/>
<rect x="589" y="247" width="7.3" height="8" fill="#9CAEB2"/>
<rect x="589" y="258" width="7.3" height="8" fill="#9CAEB2"/>
<rect x="589" y="269" width="7.3" height="8" fill="#9CAEB2"/>
<rect x="589" y="280" width="7.3" height="8" fill="#9CAEB2"/>
<rect x="589" y="291" width="7.3" height="8" fill="#9CAEB2"/>
<rect x="589" y="302" width="7.3" height="8" fill="#9CAEB2"/>
<rect x="600" y="214" width="7.3" height="8" fill="#9CAEB2"/>
<rect x="600" y="225" width="7.3" height="8" fill="#9CAEB2"/>
<rect x="600" y="236" width="7.3" height="8" fill="#9CAEB2"/>
<rect x="600" y="247" width="7.3" height="8" fill="#9CAEB2"/>
<rect x="600" y="258" width="7.3" height="8" fill="#9CAEB2"/>
<rect x="600" y="269" width="7.3" height="8" fill="#9CAEB2"/>
<rect x="600" y="280" width="7.3" height="8" fill="#9CAEB2"/>
<rect x="600" y="291" width="7.3" height="8" fill="#9CAEB2"/>
<rect x="600" y="302" width="7.3" height="8" fill="#9CAEB2"/>
<rect x="611" y="214" width="7.3" height="8" fill="#9CAEB2"/>
<rect x="611" y="225" width="7.3" height="8" fill="#9CAEB2"/>
<rect x="611" y="236" width="7.3" height="8" fill="#9CAEB2"/>
<rect x="611" y="247" width="7.3" height="8" fill="#9CAEB2"/>
<rect x="611" y="258" width="7.3" height="8" fill="#9CAEB2"/>
<rect x="611" y="269" width="7.3" height="8" fill="#9CAEB2"/>
<rect x="611" y="280" width="7.3" height="8" fill="#9CAEB2"/>
<rect x="611" y="291" width="7.3" height="8" fill="#9CAEB2"/>
<rect x="611" y="302" width="7.3" height="8" fill="#9CAEB2"/>
<rect x="622" y="214" width="7.3" height="8" fill="#9CAEB2"/>
<rect x="622" y="225" width="7.3" height="8" fill="#9CAEB2"/>
<rect x="622" y="236" width="7.3" height="8" fill="#9CAEB2"/>
<rect x="622" y="247" width="7.3" height="8" fill="#9CAEB2"/>
<rect x="622" y="258" width="7.3" height="8" fill="#9CAEB2"/>
<rect x="622" y="269" width="7.3" height="8" fill="#9CAEB2"/>
<rect x="622" y="280" width="7.3" height="8" fill="#9CAEB2"/>
<rect x="622" y="291" width="7.3" height="8" fill="#9CAEB2"/>
<rect x="622" y="302" width="7.3" height="8" fill="#9CAEB2"/>
<rect x="633" y="214" width="7.3" height="8" fill="#9CAEB2"/>
<rect x="633" y="225" width="7.3" height="8" fill="#9CAEB2"/>
<rect x="633" y="236" width="7.3" height="8" fill="#9CAEB2"/>
<rect x="633" y="247" width="7.3" height="8" fill="#9CAEB2"/>
<rect x="633" y="258" width="7.3" height="8" fill="#9CAEB2"/>
<rect x="633" y="269" width="7.3" height="8" fill="#9CAEB2"/>
<rect x="633" y="280" width="7.3" height="8" fill="#9CAEB2"/>
<rect x="633" y="291" width="7.3" height="8" fill="#9CAEB2"/>
<rect x="633" y="302" width="7.3" height="8" fill="#9CAEB2"/>
<rect x="644" y="214" width="7.3" height="8" fill="#9CAEB2"/>
<rect x="644" y="225" width="7.3" height="8" fill="#9CAEB2"/>
<rect x="644" y="236" width="7.3" height="8" fill="#9CAEB2"/>
<rect x="644" y="247" width="7.3" height="8" fill="#9CAEB2"/>
<rect x="644" y="258" width="7.3" height="8" fill="#9CAEB2"/>
<rect x="644" y="269" width="7.3" height="8" fill="#9CAEB2"/>
<rect x="644" y="280" width="7.3" height="8" fill="#9CAEB2"/>
<rect x="644" y="291" width="7.3" height="8" fill="#9CAEB2"/>
<rect x="644" y="302" width="7.3" height="8" fill="#9CAEB2"/>
<rect x="655" y="214" width="7.3" height="8" fill="#9CAEB2"/>
<rect x="655" y="225" width="7.3" height="8" fill="#9CAEB2"/>
<rect x="655" y="236" width="7.3" height="8" fill="#9CAEB2"/>
<rect x="655" y="247" width="7.3" height="8" fill="#9CAEB2"/>
<rect x="655" y="258" width="7.3" height="8" fill="#9CAEB2"/>
<rect x="655" y="269" width="7.3" height="8" fill="#9CAEB2"/>
<rect x="655" y="280" width="7.3" height="8" fill="#9CAEB2"/>
<rect x="655" y="291" width="7.3" height="8" fill="#9CAEB2"/>
<rect x="655" y="302" width="7.3" height="8" fill="#9CAEB2"/>
<rect x="666" y="214" width="7.3" height="8" fill="#9CAEB2"/>
<rect x="666" y="225" width="7.3" height="8" fill="#9CAEB2"/>
<rect x="666" y="236" width="7.3" height="8" fill="#9CAEB2"/>
<rect x="666" y="247" width="7.3" height="8" fill="#9CAEB2"/>
<rect x="666" y="258" width="7.3" height="8" fill="#9CAEB2"/>
<rect x="666" y="269" width="7.3" height="8" fill="#9CAEB2"/>
<rect x="666" y="280" width="7.3" height="8" fill="#9CAEB2"/>
<rect x="666" y="291" width="7.3" height="8" fill="#9CAEB2"/>
<rect x="666" y="302" width="7.3" height="8" fill="#9CAEB2"/>
<rect x="677" y="214" width="7.3" height="8" fill="#9CAEB2"/>
<rect x="677" y="225" width="7.3" height="8" fill="#9CAEB2"/>
<rect x="677" y="236" width="7.3" height="8" fill="#9CAEB2"/>
<rect x="677" y="247" width="7.3" height="8" fill="#9CAEB2"/>
<rect x="677" y="258" width="7.3" height="8" fill="#9CAEB2"/>
<rect x="677" y="269" width="7.3" height="8" fill="#9CAEB2"/>
<rect x="677" y="280" width="7.3" height="8" fill="#9CAEB2"/>
<rect x="677" y="291" width="7.3" height="8" fill="#9CAEB2"/>
<rect x="677" y="302" width="7.3" height="8" fill="#9CAEB2"/>
<rect x="452" y="214" width="22" height="8" fill="#9CAEB2"/>
<rect x="452" y="229" width="22" height="8" fill="#9CAEB2"/>
<rect x="452" y="244" width="22" height="8" fill="#9CAEB2"/>
<rect x="452" y="259" width="22" height="8" fill="#9CAEB2"/>
<rect x="452" y="274" width="22" height="8" fill="#9CAEB2"/>
<rect x="452" y="289" width="22" height="8" fill="#9CAEB2"/>
<rect x="481" y="214" width="22" height="8" fill="#9CAEB2"/>
<rect x="481" y="229" width="22" height="8" fill="#9CAEB2"/>
<rect x="481" y="244" width="22" height="8" fill="#9CAEB2"/>
<rect x="481" y="259" width="22" height="8" fill="#9CAEB2"/>
<rect x="481" y="274" width="22" height="8" fill="#9CAEB2"/>
<rect x="481" y="289" width="22" height="8" fill="#9CAEB2"/>
<rect x="512" y="214" width="22" height="8" fill="#9CAEB2"/>
<rect x="512" y="229" width="22" height="8" fill="#9CAEB2"/>
<rect x="512" y="244" width="22" height="8" fill="#9CAEB2"/>
<rect x="512" y="259" width="22" height="8" fill="#9CAEB2"/>
<rect x="512" y="274" width="22" height="8" fill="#9CAEB2"/>
<rect x="512" y="289" width="22" height="8" fill="#9CAEB2"/>
<rect x="541" y="214" width="22" height="8" fill="#9CAEB2"/>
<rect x="541" y="229" width="22" height="8" fill="#9CAEB2"/>
<rect x="541" y="244" width="22" height="8" fill="#9CAEB2"/>
<rect x="541" y="259" width="22" height="8" fill="#9CAEB2"/>
<rect x="541" y="274" width="22" height="8" fill="#9CAEB2"/>
<rect x="541" y="289" width="22" height="8" fill="#9CAEB2"/>
</svg>
