<?xml version="1.0" standalone="no"?>
<!DOCTYPE svg PUBLIC "-//W3C//DTD SVG 20010904//EN"
 "http://www.w3.org/TR/2001/REC-SVG-20010904/DTD/svg10.dtd">
<svg version="1.0" xmlns="http://www.w3.org/2000/svg"
 width="300.000000pt" height="330.000000pt" viewBox="0 0 300.000000 330.000000"
 preserveAspectRatio="xMidYMid meet">
<metadata>
Created by potrace 1.10, written by Peter Selinger 2001-2011
</metadata>
<g transform="translate(0.000000,330.000000) scale(0.100000,-0.100000)"
fill="#000000" stroke="none">
<path d="M10 1655 l0 -1635 828 0 827 0 -3 225 -3 225 666 0 665 0 0 1410 0
1410 -1490 0 -1490 0 0 -1635z m580 1175 l0 -420 -272 0 -273 0 0 420 0 420
273 0 272 0 0 -420z m2370 -420 l0 -840 -131 0 c-119 0 -130 -2 -127 -17 3
-16 17 -18 131 -18 l127 0 0 -512 0 -513 -435 0 -435 0 0 30 c0 23 -4 30 -20
30 -16 0 -20 -7 -20 -30 l0 -30 -195 0 -195 0 0 514 0 514 46 -6 c41 -4 46 -3
42 14 -2 14 -13 20 -46 22 l-42 3 0 238 0 239 -427 3 c-351 3 -685 -2 -570 -9
21 -2 27 -7 27 -25 0 -17 -10 -28 -36 -41 l-37 -17 7 65 c6 64 6 66 -16 66
-21 0 -23 -4 -20 -50 l4 -50 -126 0 -126 0 0 190 0 190 124 0 c73 0 127 -4
131 -10 3 -5 13 -10 21 -10 13 0 14 59 12 450 l-3 450 1168 0 1167 0 0 -840z
m-2660 -345 l0 -305 -127 0 -128 0 0 305 0 305 128 0 127 0 0 -305z m477 -37
c4 -7 9 -34 10 -60 1 -45 0 -48 -23 -48 -24 0 -24 0 -8 31 34 67 25 90 -26 64
-29 -15 -30 -15 -30 5 0 16 7 20 34 20 19 0 38 -6 43 -12z m275 -115 l2 -128
3 128 4 127 94 0 95 0 0 -117 c0 -65 3 -128 6 -141 l6 -22 -266 1 c-146 0
-266 5 -266 9 0 5 4 19 10 32 5 13 14 42 20 66 6 23 15 42 20 42 5 0 11 -30
13 -67 2 -38 4 -8 5 65 l2 132 125 0 125 0 2 -127z m-287 88 c-5 -29 -34 -81
-45 -81 -16 0 -11 16 10 35 11 10 20 23 20 29 -1 6 -12 -2 -25 -19 l-25 -30 0
25 c0 17 9 31 28 42 36 22 42 22 37 -1z m855 -100 c0 -60 3 -116 6 -125 5 -14
-13 -16 -162 -16 l-169 0 0 125 0 125 163 0 162 0 0 -109z m-934 26 c-4 -12
-20 -38 -36 -57 l-30 -34 0 55 c0 53 2 56 33 71 28 13 32 13 35 1 2 -8 1 -24
-2 -36z m-97 -69 l1 -98 -125 0 -125 0 0 98 0 97 124 0 124 0 1 -97z m129 45
c-2 -5 -19 -38 -36 -75 -39 -79 -62 -95 -62 -42 0 26 10 47 37 80 21 24 43 44
51 44 7 0 12 -3 10 -7z m37 -10 c-3 -10 -13 -44 -22 -75 -15 -53 -19 -58 -45
-58 l-28 0 37 75 c21 41 44 75 51 75 9 0 12 -6 7 -17z m865 -1003 l0 -830
-785 0 -785 -1 -3 833 -2 833 788 -2 787 -3 0 -830z"/>
<path d="M115 2845 c0 -30 3 -35 23 -35 15 0 22 6 21 18 0 10 -3 12 -6 5 -10
-25 -25 -12 -21 17 3 17 0 30 -6 30 -6 0 -11 -16 -11 -35z"/>
<path d="M185 2870 c3 -5 1 -19 -5 -31 -13 -24 -4 -41 11 -19 8 13 10 13 18 0
16 -24 21 -6 9 28 -7 18 -18 32 -26 32 -7 0 -10 -4 -7 -10z"/>
<path d="M239 2848 c8 -41 35 -44 39 -5 2 15 8 27 14 27 6 0 8 -13 6 -30 -5
-35 8 -41 14 -7 6 32 -1 47 -23 47 -14 0 -19 -7 -19 -30 0 -16 -4 -30 -10 -30
-5 0 -10 14 -10 30 0 17 -4 30 -9 30 -5 0 -5 -15 -2 -32z"/>
<path d="M360 2845 c0 -37 18 -47 40 -20 16 19 3 55 -21 55 -15 0 -19 -7 -19
-35z m35 0 c0 -10 -6 -20 -12 -22 -8 -3 -13 5 -13 22 0 17 5 25 13 23 6 -3 12
-13 12 -23z"/>
<path d="M415 2845 c0 -19 3 -35 8 -35 4 0 7 7 7 15 0 20 16 19 24 -1 4 -9 9
-14 12 -11 3 3 2 12 -2 19 -5 7 -9 20 -9 28 0 8 -9 16 -20 18 -17 2 -20 -3
-20 -33z"/>
<path d="M484 2859 c8 -12 12 -28 9 -35 -3 -8 1 -14 10 -14 10 0 13 8 9 25 -2
14 -9 25 -14 25 -5 0 -6 5 -3 10 3 6 -1 10 -10 10 -14 0 -15 -2 -1 -21z"/>
<path d="M2377 2953 c-2 -13 0 -23 4 -23 5 0 9 5 9 11 0 8 6 7 17 -2 15 -13
15 -12 5 8 -9 16 -9 22 1 26 6 3 2 4 -10 4 -14 -1 -23 -9 -26 -24z"/>
<path d="M2474 2964 c3 -9 6 -20 6 -25 0 -5 4 -9 9 -9 5 0 7 10 3 22 -3 14 -2
19 6 14 7 -4 12 -2 12 3 0 6 -9 11 -21 11 -15 0 -19 -4 -15 -16z"/>
<path d="M2522 2958 c3 -22 38 -39 38 -19 0 6 -7 8 -15 5 -9 -4 -15 0 -15 10
0 9 8 16 20 16 14 0 20 -7 20 -22 0 -19 2 -20 10 -8 6 10 10 11 10 3 0 -7 3
-13 8 -13 4 0 7 11 7 25 0 27 -10 33 -18 13 -4 -10 -6 -10 -6 0 -1 7 -14 12
-32 12 -26 0 -30 -3 -27 -22z"/>
<path d="M2620 2955 c0 -16 6 -25 15 -25 8 0 15 5 15 11 0 5 -5 7 -11 3 -8 -4
-8 0 0 15 10 17 9 21 -4 21 -9 0 -15 -9 -15 -25z"/>
<path d="M2400 2865 c0 -24 3 -26 44 -23 38 3 43 5 36 22 -9 27 -30 32 -30 9
0 -12 -8 -19 -22 -20 -20 -2 -21 -1 -5 8 23 13 22 29 -3 29 -15 0 -20 -7 -20
-25z"/>
<path d="M2490 2879 c0 -5 5 -7 12 -3 8 5 9 0 6 -14 -4 -13 -1 -22 5 -22 7 0
13 11 13 25 2 18 -3 25 -17 25 -10 0 -19 -5 -19 -11z"/>
<path d="M2548 2883 c6 -2 12 -11 12 -18 0 -7 -6 -16 -12 -18 -7 -3 1 -6 18
-6 20 -1 34 5 38 15 9 24 -2 34 -37 33 -18 0 -26 -3 -19 -6z"/>
<path d="M2644 2875 c-11 -29 26 -50 42 -23 5 8 0 9 -14 6 -16 -4 -22 -2 -22
9 0 9 6 13 15 9 8 -3 15 -1 15 4 0 16 -30 12 -36 -5z"/>
<path d="M2451 2771 c-14 -25 -5 -44 10 -21 8 13 10 13 19 0 5 -8 10 -10 10
-4 0 5 -6 19 -14 29 -13 18 -14 18 -25 -4z"/>
<path d="M2501 2763 c0 -16 3 -22 6 -15 2 6 9 10 14 6 5 -3 9 4 9 15 0 12 -7
21 -15 21 -10 0 -15 -9 -14 -27z"/>
<path d="M2550 2765 c0 -16 6 -25 15 -25 8 0 15 5 15 11 0 5 -5 7 -11 3 -8 -4
-8 0 0 15 10 17 9 21 -4 21 -9 0 -15 -9 -15 -25z"/>
<path d="M2600 2781 c0 -5 -3 -18 -6 -28 -5 -15 -4 -16 6 -3 9 11 13 12 17 3
2 -7 9 -13 14 -13 5 0 3 11 -3 25 -11 24 -28 34 -28 16z"/>
<path d="M1330 2685 c0 -28 4 -35 19 -35 21 0 37 17 26 28 -3 3 -10 0 -15 -8
-7 -11 -10 -6 -10 18 0 17 -4 32 -10 32 -5 0 -10 -16 -10 -35z"/>
<path d="M1395 2685 c0 -19 5 -35 11 -35 6 0 10 16 10 35 -1 46 -21 46 -21 0z"/>
<path d="M1440 2716 c0 -2 6 -19 14 -37 l14 -34 12 29 c6 16 13 33 16 37 3 5
1 9 -4 9 -5 0 -14 -10 -20 -22 l-11 -23 0 23 c-1 12 -5 22 -11 22 -5 0 -10 -2
-10 -4z"/>
<path d="M1515 2685 c0 -19 5 -35 10 -35 6 0 10 16 10 35 0 19 -4 35 -10 35
-5 0 -10 -16 -10 -35z"/>
<path d="M1560 2685 c0 -19 5 -35 11 -35 6 0 8 9 4 21 -5 15 -4 19 4 15 13 -8
14 -4 5 18 -11 28 -24 17 -24 -19z"/>
<path d="M1623 2704 c-8 -20 9 -49 28 -49 8 0 15 8 17 18 2 9 -1 17 -7 17 -6
0 -8 -7 -4 -16 4 -12 2 -15 -8 -12 -21 7 -18 43 4 42 9 -1 17 2 17 7 0 16 -40
10 -47 -7z"/>
<path d="M2100 2030 l0 -460 -50 0 c-44 0 -50 -2 -50 -21 0 -17 5 -20 25 -17
22 5 25 2 25 -23 0 -24 4 -29 23 -29 20 0 23 4 19 28 l-4 27 176 -3 c172 -3
176 -3 176 17 0 20 -5 21 -145 21 l-145 0 0 460 0 460 -25 0 -25 0 0 -460z"/>
<path d="M2325 2095 c0 -21 5 -35 12 -35 7 0 10 7 7 18 -5 16 -5 16 9 0 20
-25 30 -23 17 3 -9 15 -8 24 1 35 6 8 8 14 4 14 -4 0 -14 -8 -22 -17 -14 -17
-14 -17 -9 0 3 10 0 17 -7 17 -7 0 -12 -14 -12 -35z"/>
<path d="M2395 2095 c0 -29 4 -35 20 -34 11 0 14 3 8 6 -16 6 -17 35 -1 51 9
9 8 12 -7 12 -16 0 -20 -7 -20 -35z"/>
<path d="M2447 2123 c-12 -11 -8 -25 4 -17 8 5 10 -1 7 -20 -3 -16 -1 -26 7
-26 7 0 10 12 8 33 -3 24 -2 29 6 17 9 -13 11 -13 11 3 0 17 -30 24 -43 10z"/>
<path d="M2522 2118 c-7 -7 -12 -20 -12 -30 0 -22 27 -35 42 -20 7 7 4 10 -8
9 -13 -1 -19 5 -19 18 0 14 6 19 19 17 11 -2 15 1 11 7 -8 14 -18 14 -33 -1z"/>
<path d="M2570 2095 c0 -19 4 -35 10 -35 5 0 7 7 4 15 -4 10 0 15 11 15 11 0
15 -5 11 -15 -4 -12 3 -15 32 -15 37 0 38 1 38 35 0 34 -1 35 -38 35 -29 0
-36 -3 -32 -15 4 -10 0 -15 -11 -15 -11 0 -15 5 -11 15 3 8 1 15 -4 15 -6 0
-10 -16 -10 -35z"/>
<path d="M2690 2098 c0 -21 4 -38 9 -38 5 0 7 10 4 23 -4 18 -3 19 6 7 6 -8
11 -10 11 -4 0 5 -7 19 -15 30 -13 18 -14 17 -15 -18z"/>
<path d="M2368 1005 c3 -27 9 -35 21 -33 25 5 22 62 -5 66 -18 3 -20 -1 -16
-33z"/>
<path d="M2429 1031 c8 -5 12 -19 9 -35 -3 -16 -1 -26 7 -26 7 0 11 14 11 35
-1 28 -5 35 -21 35 -15 0 -17 -2 -6 -9z"/>
<path d="M2478 1005 c5 -45 17 -45 18 0 0 20 -4 35 -11 35 -7 0 -9 -13 -7 -35z"/>
<path d="M2517 1018 c4 -19 3 -20 -6 -8 -6 8 -11 10 -11 4 0 -5 7 -19 15 -30
13 -18 14 -17 15 19 0 20 -4 37 -9 37 -5 0 -7 -10 -4 -22z"/>
<path d="M2549 1031 c8 -5 12 -19 9 -35 -3 -16 -1 -26 7 -26 7 0 11 14 11 35
-1 28 -5 35 -21 35 -15 0 -17 -2 -6 -9z"/>
<path d="M2598 1005 c2 -19 8 -35 12 -35 4 0 6 12 3 28 -3 26 -3 26 8 5 17
-33 29 -28 28 10 -1 30 -1 30 -8 7 l-7 -25 -8 23 c-12 36 -33 27 -28 -13z"/>
<path d="M2663 1024 c-8 -20 9 -49 28 -49 8 0 15 8 17 18 2 11 -3 17 -15 16
-10 0 -13 -3 -5 -6 6 -2 10 -9 6 -14 -9 -15 -24 0 -24 23 0 15 5 19 20 15 11
-3 20 -1 20 4 0 16 -40 10 -47 -7z"/>
<path d="M1770 998 c0 -27 16 -42 17 -15 0 6 4 19 7 28 5 10 2 16 -9 16 -10 0
-15 -10 -15 -29z"/>
<path d="M1819 1014 c-10 -12 -9 -18 3 -31 18 -17 38 -10 38 13 0 8 5 12 11 9
6 -4 8 -13 5 -21 -3 -8 1 -14 8 -14 9 0 12 7 9 20 -3 11 0 20 6 20 6 0 11 -9
11 -20 0 -13 7 -20 20 -20 11 0 20 5 20 11 0 5 -5 7 -11 3 -8 -4 -7 0 1 15 11
21 10 22 -37 19 -26 -1 -53 1 -59 5 -7 4 -17 0 -25 -9z"/>
<path d="M1973 1023 c-15 -5 -18 -53 -3 -53 6 0 10 6 10 13 0 8 4 7 10 -3 5
-8 10 -10 10 -4 0 5 -6 16 -12 23 -10 11 -10 13 0 7 6 -4 12 -3 12 3 0 13 -12
19 -27 14z"/>
<path d="M86 2099 c3 -6 0 -15 -7 -20 -11 -7 -10 -9 4 -9 25 0 21 -18 -5 -23
-13 -3 -8 -4 12 -4 19 1 38 6 43 12 4 6 10 5 16 -5 17 -25 20 -7 6 28 -8 17
-19 32 -25 32 -6 0 -9 -4 -6 -9 4 -5 2 -19 -2 -32 -9 -22 -9 -22 -20 9 -6 18
-14 32 -17 32 -3 0 -3 -5 1 -11z"/>
<path d="M177 2103 c-4 -3 -7 -11 -7 -17 0 -6 5 -4 11 4 8 12 9 7 6 -17 -2
-21 1 -33 8 -33 7 0 10 12 8 33 -3 24 -2 29 6 17 9 -13 11 -13 11 3 0 17 -30
24 -43 10z"/>
<path d="M235 2075 c0 -19 3 -35 8 -35 4 0 7 7 7 15 0 21 18 19 23 -2 3 -10 5
-2 5 17 0 19 -2 29 -5 23 -7 -18 -23 -16 -23 2 0 8 -3 15 -7 15 -5 0 -8 -16
-8 -35z"/>
<path d="M924 1905 c0 -71 1 -99 3 -62 2 37 2 96 0 130 -2 34 -3 4 -3 -68z"/>
<path d="M1184 1910 c0 -69 1 -97 3 -62 2 34 2 90 0 125 -2 34 -3 6 -3 -63z"/>
<path d="M864 1905 c0 -66 1 -92 3 -57 2 34 2 88 0 120 -2 31 -3 3 -3 -63z"/>
<path d="M994 1905 c0 -66 1 -92 3 -57 2 34 2 88 0 120 -2 31 -3 3 -3 -63z"/>
<path d="M1124 1905 c0 -66 1 -92 3 -57 2 34 2 88 0 120 -2 31 -3 3 -3 -63z"/>
<path d="M1343 1888 c9 -5 22 -6 29 -2 7 5 9 0 6 -14 -6 -20 -2 -22 33 -22 42
0 62 21 40 43 -10 9 -17 7 -31 -10 -22 -28 -34 -29 -27 -4 4 16 -1 19 -31 19
-28 0 -32 -2 -19 -10z"/>
<path d="M1475 1889 c-4 -6 -2 -15 5 -19 10 -6 9 -9 -1 -13 -10 -4 -9 -6 4 -6
9 -1 17 6 17 14 0 8 0 18 1 22 1 13 -19 15 -26 2z"/>
<path d="M1520 1875 c0 -17 5 -25 18 -25 13 0 14 2 3 9 -9 6 -10 11 -2 15 16
10 14 26 -4 26 -9 0 -15 -9 -15 -25z"/>
<path d="M420 1880 c0 -14 11 -17 58 -18 50 0 58 2 58 19 0 16 -8 18 -58 17
-47 -1 -58 -5 -58 -18z"/>
<path d="M650 935 c-21 -25 -8 -50 28 -52 17 -1 32 3 32 8 0 5 7 9 16 9 8 0
12 -4 9 -10 -3 -6 5 -10 19 -10 13 0 27 6 30 13 5 10 7 10 12 0 7 -15 34 -17
34 -3 0 6 7 10 16 10 8 0 12 -4 9 -10 -3 -5 -1 -10 5 -10 14 0 4 39 -15 58
-10 11 -13 8 -18 -18 -4 -19 -11 -29 -18 -25 -6 4 -8 13 -5 20 5 15 -12 35
-31 35 -9 0 -11 -9 -6 -30 7 -37 -13 -41 -27 -6 -14 37 -27 39 -35 3 -4 -17
-9 -26 -12 -19 -2 6 -9 12 -14 12 -6 0 -7 -4 -4 -10 3 -5 -1 -10 -9 -10 -26 0
-19 38 7 42 18 3 19 4 5 10 -9 4 -21 1 -28 -7z"/>
<path d="M890 935 c-6 -8 -10 -22 -8 -32 4 -20 39 -25 46 -5 2 6 -1 12 -8 12
-6 0 -8 -4 -5 -10 3 -5 -1 -10 -9 -10 -26 0 -19 38 7 42 18 3 19 4 5 10 -9 4
-21 1 -28 -7z"/>
<path d="M944 913 c1 -27 5 -33 24 -33 26 0 28 12 6 34 -14 15 -14 16 0 16 9
0 16 4 16 9 0 5 -10 8 -23 7 -19 -1 -23 -6 -23 -33z"/>
<path d="M2959 285 l-4 -120 -620 -5 -620 -5 630 -3 630 -2 -3 87 c-4 157 -8
170 -13 48z"/>
<path d="M2158 330 c3 -19 10 -30 21 -30 12 0 13 2 3 9 -11 7 -11 9 2 14 25
10 19 37 -7 37 -20 0 -23 -4 -19 -30z"/>
<path d="M2220 346 c-18 -22 -5 -48 22 -44 17 2 23 10 23 28 0 29 -26 38 -45
16z m38 -19 c2 -10 -3 -17 -12 -17 -18 0 -29 16 -21 31 9 14 29 6 33 -14z"/>
<path d="M2280 330 c0 -16 5 -30 11 -30 5 0 7 5 4 10 -3 6 -2 10 4 10 5 0 12
-4 15 -8 3 -5 26 -9 51 -9 32 -1 45 3 45 13 0 8 5 14 10 14 6 0 10 -7 10 -15
0 -8 3 -15 8 -15 4 0 7 14 7 30 0 17 -3 30 -7 30 -5 0 -8 -4 -8 -10 0 -5 -5
-10 -11 -10 -5 0 -7 5 -4 11 5 7 -6 9 -31 7 -29 -2 -42 -9 -51 -28 l-13 -25 0
28 c0 20 -5 27 -20 27 -16 0 -20 -7 -20 -30z m120 0 c0 -9 -10 -16 -25 -18
-25 -2 -40 11 -30 28 10 16 55 8 55 -10z"/>
</g>
</svg>
